{"title":"White Collar S05E10 HDTV 480p x264 AAC [GWC].mp4","uid":9460231,"size":130085283,"categoryP":"video","categoryS":"tv_shows","magnet":"?xt=urn:btih:f9347f285aa2ac01282639950cfa65667d65d87b&amp;dn=White+Collar+S05E10+HDTV+480p+x264+AAC+%5BGWC%5D.mp4&amp;tr=udp%3A%2F%2Ftracker.openbittorrent.com%3A80&amp;tr=udp%3A%2F%2Fopen.demonii.com%3A1337&amp;tr=udp%3A%2F%2Ftracker.coppersurfer.tk%3A6969&amp;tr=udp%3A%2F%2Fexodus.desync.com%3A6969","seeders":1,"leechers":0,"uploader":"canc232","files":1,"time":1389337355,"description":"White Collar S05E10 HDTV 480p x264 AAC [GWC]\n\n\nSCREENS: &lt;a href=&quot;\nhttp://s20.postimg.org/r8r81u3ct/White_Collar_S05_E10_HDTV_480p_x264_AAC_GWC_11.jpg&quot; rel=&quot;nofollow&quot; target=&quot;_NEW&quot;&gt;\nhttp://s20.postimg.org/r8r81u3ct/White_Collar_S05_E10_HDTV_480p_x264_AAC_GWC_11.jpg&lt;/a&gt; &lt;a href=&quot;\nhttp://s20.postimg.org/w64smy5bx/White_Collar_S05_E10_HDTV_480p_x264_AAC_GWC_11.jpg&quot; rel=&quot;nofollow&quot; target=&quot;_NEW&quot;&gt;\nhttp://s20.postimg.org/w64smy5bx/White_Collar_S05_E10_HDTV_480p_x264_AAC_GWC_11.jpg&lt;/a&gt; &lt;a href=&quot;\nhttp://s20.postimg.org/hlnps4ad9/White_Collar_S05_E10_HDTV_480p_x264_AAC_GWC_11.jpg&quot; rel=&quot;nofollow&quot; target=&quot;_NEW&quot;&gt;\nhttp://s20.postimg.org/hlnps4ad9/White_Collar_S05_E10_HDTV_480p_x264_AAC_GWC_11.jpg&lt;/a&gt;\n\n\nMEDIA INFO :\n\nGeneral \nFormat : MPEG-4 \nFormat profile : Base Media \nFile size : 124 MiB \nDuration : 42mn 20s \nOverall bit rate mode : Variable \nOverall bit rate : 410 Kbps \n\nVideo \nFormat : AVC \nFormat profile : &lt;a class=&quot;__cf_email__&quot; href=&quot;/cdn-cgi/l/email-protection&quot; data-cfemail=&quot;1850717f7058542b3628&quot;&gt;[email&amp;#160;protected]&lt;/a&gt;&lt;script cf-hash='f9e31' type=&quot;text/javascript&quot;&gt;\n/* &lt;![CDATA[ */!function(){try{var t=&quot;currentScript&quot;in document?document.currentScript:function(){for(var t=document.getElementsByTagName(&quot;script&quot;),e=t.length;e--;)if(t[e].getAttribute(&quot;cf-hash&quot;))return t[e]}();if(t&amp;&amp;t.previousSibling){var e,r,n,i,c=t.previousSibling,a=c.getAttribute(&quot;data-cfemail&quot;);if(a){for(e=&quot;&quot;,r=parseInt(a.substr(0,2),16),n=2;a.length-n;n+=2)i=parseInt(a.substr(n,2),16)^r,e+=String.fromCharCode(i);e=document.createTextNode(e),c.parentNode.replaceChild(e,c)}}}catch(u){}}();/* ]]&gt; */&lt;/script&gt; \nFormat settings, CABAC : Yes \nFormat settings, ReFrames : 4 frames \nDuration : 42mn 20s \nBit rate : 346 Kbps \nMaximum bit rate : 1 499 Kbps \nWidth : 720 pixels \nHeight : 400 pixels \nDisplay aspect ratio : 16:9 \nFrame rate : 23.976 fps \nStream size : 105 MiB \nTitle : White Collar S05E10 HDTV 480p x264 AAC [GWC] \nWriting library : x264 core\n\nAudio \nFormat : AAC \nFormat profile : HE-AAC / LC \nDuration : 42mn 20s \nBit rate mode : Variable \nChannel(s) : 2 channels \nStream size : 18.2 MiB\nLanguage : English \n","torrent":{"xt":"urn:btih:f9347f285aa2ac01282639950cfa65667d65d87b","amp;dn":"White+Collar+S05E10+HDTV+480p+x264+AAC+%5BGWC%5D.mp4","amp;tr":["udp%3A%2F%2Ftracker.openbittorrent.com%3A80","udp%3A%2F%2Fopen.demonii.com%3A1337","udp%3A%2F%2Ftracker.coppersurfer.tk%3A6969","udp%3A%2F%2Fexodus.desync.com%3A6969"],"infoHash":"f9347f285aa2ac01282639950cfa65667d65d87b","infoHashBuffer":{"type":"Buffer","data":[249,52,127,40,90,162,172,1,40,38,57,149,12,250,101,102,125,101,216,123]},"announce":[],"urlList":[]}}